Coordinates
version=1
nRows=5
nColumns=40
inDegrees=yes

Units are S.I. units (second, meters, Newtons, ...)
Angles are in degrees.

endheader
time	pelvis_tilt	pelvis_list	pelvis_rotation	pelvis_tx	pelvis_ty	pelvis_tz	hip_flexion_r	hip_adduction_r	hip_rotation_r	knee_angle_r	knee_angle_r_beta	ankle_angle_r	subtalar_angle_r	mtp_angle_r	hip_flexion_l	hip_adduction_l	hip_rotation_l	knee_angle_l	knee_angle_l_beta	ankle_angle_l	subtalar_angle_l	mtp_angle_l	lumbar_extension	lumbar_bending	lumbar_rotation	arm_flex_r	arm_add_r	arm_rot_r	elbow_flex_r	pro_sup_r	wrist_flex_r	wrist_dev_r	arm_flex_l	arm_add_l	arm_rot_l	elbow_flex_l	pro_sup_l	wrist_flex_l	wrist_dev_l
      0.00000000	      2.65486133	     -3.28443738	     -1.04448310	     -1.12364119	      0.89026536	      0.99221086	     24.51518291	     -1.01060647	    -11.20847930	    -35.87509094	     -0.62613846	      0.58533631	     -9.94708380	      1.99365659	     -9.99397811	     -2.14061562	      5.68274281	    -12.50901209	     -0.21832345	     14.28815670	     -2.10926519	     -4.80679735	     -9.50982206	      6.17798504	     -3.46926266	     -4.79097578	    -11.42315384	     17.72774374	     13.28353337	     89.95437384	      0.00000000	      0.00000000	     14.14720998	      9.54577457	    -16.08042133	     32.99267382	     89.95437384	      0.00000000	      0.00000000
      0.01000000	      2.35311485	     -3.01741726	     -0.69055493	     -1.11199237	      0.88799137	      0.99264453	     25.23019783	     -1.25598421	    -11.60936618	    -32.78776846	     -0.57225451	      0.36550961	     -8.55874998	      2.15154055	    -10.56847617	     -2.35042225	      5.66095611	    -12.38298266	     -0.21612382	     14.54110760	     -2.32290893	     -4.95688867	     -9.15894078	      5.94077083	     -3.79011949	     -5.24283164	    -11.24598824	     17.72576320	     13.11962163	     89.95437384	      0.00000000	      0.00000000	     14.64442134	      9.67442815	    -15.97075982	     34.62783556	     89.95437384	      0.00000000	      0.00000000
      0.02000000	      2.83994896	     -3.10290086	     -0.20025144	     -1.09936845	      0.88703250	      0.99317604	     24.70920094	     -1.39514721	    -13.13220716	    -29.48917036	     -0.51468312	      0.45566693	     -5.73983437	      2.66537112	    -12.21584320	     -2.03280269	      6.23906100	    -11.98067630	     -0.20910225	     14.20442407	     -3.24745129	     -5.88724412	     -9.62676228	      6.06847199	     -4.15833536	     -5.60670163	    -11.06804472	     17.55673912	     12.94160998	     89.95437384	      0.00000000	      0.00000000	     15.07324048	      9.79102968	    -15.79254753	     36.36036237	     89.95437384	      0.00000000	      0.00000000
      0.03000000	      2.79281242	     -3.06710339	      0.13524820	     -1.08726900	      0.88527632	      0.99400941	     24.83592936	     -1.44259107	    -14.14160202	    -26.36064689	     -0.46008008	      0.00984528	     -4.05042573	      2.76574192	    -13.07128312	     -1.90210396	      6.52907370	    -11.91060038	     -0.20787919	     14.21385239	     -3.69317534	     -6.37415057	     -9.54923222	      6.03304267	     -4.41419271	     -5.93928540	    -10.86375668	     17.42301276	     12.71783274	     89.95437384	      0.00000000	      0.00000000	     15.47140667	      9.91701571	    -15.67428433	     37.98529719	     89.95437384	      0.00000000	      0.00000000
      0.04000000	      2.33608655	     -2.85175410	      0.39794009	     -1.07563179	      0.88291010	      0.99487250	     25.50148419	     -1.62299027	    -14.76800242	    -23.62392587	     -0.41231529	     -0.58015936	     -2.81975182	      2.77505622	    -13.28968159	     -1.99789071	      6.46334039	    -12.17376749	     -0.21247232	     14.29615488	     -3.75953525	     -6.46249459	     -9.06989181	      5.79069689	     -4.70920372	     -6.20449165	    -10.65197329	     17.37795194	     12.51554451	     89.95437384	      0.00000000	      0.00000000	     15.78730427	     10.14485291	    -15.65636021	     39.61553604	     89.95437384	      0.00000000	      0.00000000
